# xmcd
# 
# Track frame offsets:
#     150
#     14722
#     26325
#     38412
#     49912
#     63965
#     76407
#     88010
#     100475
#     114827
#     129132
#     142477
#     156267
#     171730
#     183725
#     197250
#     213472
#     224757
#     240187
#     253152
#     264952
#     276315
#     288037
#     299390
#     312872
#     322430
# 
# Disc length: 4425
# 
# Revision: 0
# Processed by: cddbd v1.5.2PL0 Copyright (c) Steve Scherf et al.
# Submitted via: fre:ac v1.0.17
# 
DISCID=8d11471a
DTITLE=Big Maybelle - The Complete OKeh Sessions 1952-'55
DYEAR=1994
DGENRE=R&B
TTITLE0=Just Want Your Love
TTITLE1=So Good To My Baby
TTITLE2=Gabbin' Blues (Don't Run My Business)
TTITLE3=My Country Man
TTITLE4=Rain Down Rain
TTITLE5=Way Back Home
TTITLE6=Please Stay Away From My Sam
TTITLE7=Jinny Mule
TTITLE8=Send for Me
TTITLE9=Maybelle's Blues
TTITLE10=I've Got A Feelin'
TTITLE11=You'll Never Know
TTITLE12=No More Trouble Out Of Me
TTITLE13=My Big Mistake
TTITLE14=Ain't No Use
TTITLE15=I'm Getting 'Long Alright
TTITLE16=You'll Be Sorry
TTITLE17=Hair Dressin' Women
TTITLE18=One Monkey Don't Stop No Show
TTITLE19=Don't Leave Poor Me
TTITLE20=Ain't To Be Played With
TTITLE21=New Kind Of Mambo
TTITLE22=Ocean Of Tears
TTITLE23=Whole Lot Of Shakin' Goin' On
TTITLE24=The Other Night
TTITLE25=Such A Cutie
EXTD=Personnel:\n10/8/52 Session:\nAlfred Cobbs, trombone - Sam "The Man" Taylor, tenor sax - Dave McRae, baritone sax - Fletcher Smith, piano - James Cannady, guitar - Grachan Moncur, bass - Charlie Smith, drums\nArranged and conducted by Leroy Kirkland.\n10/2
EXTD=9/52 session:\nSame as above, except Marty Wilson replaces Charlie Smith on drums.\n6/11/53 session:\nEli Robinson, trombone - Sam "The Man" Taylor, tenor sax - Dave McRae, baritone sax - Lee Anderson, piano - Brownie McGhee, guitar - Al Hall,bass - Marty 
EXTD=Wilson, drums.\nArranged and conducted by Leroy Kirkland.\n1/20/54 session:\nJoe Wilder, trumpet - Paul Ricca, alto sax, Sam "The Man" Taylor, tenor sax - Dave McRae, baritone sax - Al Williams, piano - Mickey Baker, guitar - Lloyd Trotman, bass - Jimmy Cr
EXTD=awford, drums\nArranged and conducted by Danny Mendelsohn.\n3/2/54 session:\nSame as above. except Taft Jordan replaces Joe Wilder on trumpet.\n9/23/54 session:\nSam "The Man" Taylor, Maurice Simon, tenor saxes - Leslie Johnakins. baritone sax - Ernie 
EXTD=Hayes, piano - Mickey Baker, guitar - Norman Keenan, bass - Panama Francis, drums\nArranged and conducted by Leroy Kirkland.\n3/21/55 session:\nBilly Byers, trombone - Jerry Richardson, alto sax - Budd Johnson, tenor sax - Heywood Henry, baritone sax - Erni
EXTD=e Hayes, piano - Mickey Baker, guitar - Lloyd Trotman, bass - Hervie Lovelle, drums\nArranged and produced by Quincy Jones.
EXTT0=master #: CO 48457\nrec: 10/8/52\nrel: OKEH 6955
EXTT1=master #: CO 48458\nrec: 10/8/52\nrel: EPIC LP EG 38456
EXTT2=master #: CO 48459\nrec: 10/8/52\nrel: OKEH 6931
EXTT3=master #: CO 48460\nrec: 10/8/52\nrel: OKEH 7009
EXTT4=master #: CO 48519\nrec: 10/29/52\nrel: OKEH 6931
EXTT5=master #: CO 48520\nrec: 10/29/52\nrel: OKEH 6955
EXTT6=master #: CO 48520\nrec: 6/11/53\nrel: EPIC LP EG 38456
EXTT7=master #: CO 49521\nrec: 6/11/53\nrel: OKEH 6998
EXTT8=master #: CO 49522\nrec: 6/11/53\nrel: OKEH 6998
EXTT9=master #: CO 49523\nrec: 6/11/53\nrel: OKEH 7009
EXTT10=master #: CO 50758\nrec: 1/20/54\nrel: OKEH 7026
EXTT11=master #: CO 50759\nrec: 1/20/54\nrel: OKEH 7026
EXTT12=master #: CO 50760\nrec: 1/20/54\nrel: EPIC LP EG 38456
EXTT13=master #: CO 50761\nrec: 1/20/54\nrel: OKEH 7042
EXTT14=master #: CO 51014\nrec: 3/2/54\nrel: OKEH 7053
EXTT15=master #: CO 51015\nrec: 3/2/54\nrel: OKEH 7042
EXTT16=master #: CO 51016\nrec: 3/2/54\nrel: EPIC LP EG 38456
EXTT17=master #: CO 51017\nrec: 3/2/54\nrel: EPIC LP EG 38456
EXTT18=master #: CO 51918\nrec: 9/23/54\nrel: OKEH 7060
EXTT19=master #: CO 51919\nrec: 9/23/54\nrel: OKEH 7053
EXTT20=master #: CO 51920\nrec: 9/23/54\nrel: EPIC LP EG 38456
EXTT21=master #: CO 51921\nrec: 9/23/54\nrel: OKEH 7069
EXTT22=master #: CO 53196\nrec: 3/21/55\nrel: OKEH R&B STORY BOX SET: EPIC/OKEH 48912
EXTT23=master #: CO 53197\nrec: 3/21/55\nrel: OKEH 7060
EXTT24=master #: CO 53198\nrec: 3/21/55\nrel: OKEH 7066
EXTT25=master #: CO 53199\nrec: 3/21/55\nrel: OKEH 7066
PLAYORDER=
